<?xml version="1.0" standalone="no"?>
<!DOCTYPE svg PUBLIC "-//W3C//DTD SVG 20010904//EN"
 "http://www.w3.org/TR/2001/REC-SVG-20010904/DTD/svg10.dtd">
<svg version="1.0" xmlns="http://www.w3.org/2000/svg"
 width="500.000000pt" height="132.000000pt" viewBox="0 0 500.000000 132.000000"
 preserveAspectRatio="xMidYMid meet">

<g transform="translate(0.000000,132.000000) scale(0.100000,-0.100000)"
fill="#FFFFFF" stroke="none">
<path d="M540 830 l0 -490 55 0 55 0 0 490 0 490 -55 0 -55 0 0 -490z"/>
<path d="M4540 1180 l0 -140 25 0 25 0 0 140 0 140 -25 0 -25 0 0 -140z"/>
<path d="M4640 1181 l0 -141 25 0 c25 0 25 1 25 88 l1 87 51 -88 c45 -78 54
-88 77 -85 25 3 26 5 29 82 l3 80 47 -80 c38 -65 52 -80 75 -82 l27 -3 0 140
0 141 -25 0 c-24 0 -24 -2 -27 -86 l-3 -86 -50 86 c-43 75 -53 86 -77 86 l-27
0 -3 -82 -3 -83 -45 80 c-37 66 -50 81 -73 83 l-27 3 0 -140z"/>
<path d="M0 780 l0 -440 213 2 212 2 -155 6 -155 5 -3 208 -2 207 140 0 c87 0
140 4 140 10 0 6 -53 10 -140 10 l-140 0 0 205 0 205 155 0 c97 0 155 4 155
10 0 6 -77 10 -210 10 l-210 0 0 -440z"/>
<path d="M1905 1060 c-71 -27 -156 -53 -187 -60 -108 -22 -178 -102 -178 -206
1 -94 58 -172 143 -195 23 -6 48 -13 55 -15 23 -6 12 -34 -15 -39 -112 -23
-170 -61 -216 -143 -55 -98 -37 -231 43 -310 69 -70 182 -98 287 -73 188 45
267 283 140 427 -44 50 -99 82 -160 92 -33 6 -43 12 -45 30 -3 18 1 22 22 22
38 0 71 16 116 56 105 95 80 266 -49 334 l-36 19 108 1 107 0 0 55 c0 30 -1
55 -2 54 -2 0 -61 -22 -133 -49z m-104 -86 c46 -23 69 -83 69 -179 0 -96 -23
-156 -69 -179 -60 -32 -108 -10 -140 63 -40 93 -24 220 34 278 37 37 61 41
106 17z m41 -475 c16 -12 41 -44 55 -72 24 -46 27 -64 28 -147 0 -84 -3 -102
-28 -152 -34 -69 -75 -98 -139 -98 -58 0 -105 31 -138 90 -29 54 -40 193 -20
264 15 53 62 113 104 132 39 18 99 10 138 -17z"/>
<path d="M1051 999 c-70 -12 -165 -63 -200 -108 -64 -81 -76 -118 -76 -226 0
-86 4 -107 25 -150 105 -214 407 -256 569 -80 39 42 71 99 71 125 0 7 -19 10
-51 8 l-50 -3 -18 -51 c-23 -68 -44 -99 -92 -134 -110 -79 -250 -31 -313 109
-28 62 -45 193 -32 245 l6 26 275 0 c312 0 300 -4 247 81 -51 79 -137 141
-217 154 -77 12 -90 13 -144 4z m137 -29 c23 -10 54 -32 68 -47 26 -28 74
-114 74 -133 0 -6 -75 -10 -219 -10 l-220 0 16 45 c20 59 87 132 138 150 55
19 92 18 143 -5z"/>
<path d="M2329 1001 c-67 -13 -125 -56 -153 -113 -40 -79 -37 -88 29 -88 l55
0 0 40 c0 57 23 106 62 130 40 24 59 25 98 5 47 -24 63 -67 64 -170 l1 -90
-125 -5 c-108 -4 -130 -8 -163 -28 -76 -48 -109 -159 -73 -245 50 -120 234
-151 327 -55 l39 40 0 -41 0 -41 50 0 50 0 0 255 c0 232 -2 259 -19 293 -10
20 -30 47 -43 59 -46 43 -133 66 -199 54z m155 -421 c0 -130 -13 -167 -67
-200 -65 -40 -148 -15 -180 53 -21 43 -22 138 -3 175 35 68 84 92 181 89 l70
-2 -1 -115z"/>
<path d="M2985 1001 c-52 -13 -94 -40 -120 -78 l-25 -38 0 53 0 52 -55 0 -55
0 0 -325 0 -325 54 0 55 0 3 264 c3 249 4 266 24 292 72 97 177 91 229 -12 18
-35 20 -62 23 -291 l3 -253 55 0 56 0 -4 253 c-3 248 -3 253 -29 302 -40 78
-135 125 -214 106z"/>
<path d="M3617 1000 c-187 -32 -307 -201 -276 -392 27 -170 162 -281 339 -280
86 0 142 18 206 63 47 34 98 105 110 152 l6 28 -52 -3 -51 -3 -18 -52 c-43
-128 -142 -193 -250 -164 -66 18 -106 53 -142 126 -28 57 -33 79 -37 163 -3
72 0 113 11 153 50 172 199 246 322 161 38 -26 92 -112 107 -170 5 -19 13 -22
57 -22 28 0 51 5 51 10 0 27 -33 84 -75 128 -76 82 -194 121 -308 102z"/>
<path d="M4377 1000 c-27 -5 -73 -20 -102 -35 -157 -76 -225 -278 -150 -443
55 -123 172 -195 315 -194 154 0 286 90 325 220 6 21 4 22 -49 22 -48 0 -56
-3 -56 -18 0 -34 -60 -140 -94 -166 -52 -39 -115 -53 -173 -37 -69 18 -107 52
-145 128 -30 61 -33 77 -37 175 l-3 108 275 0 c152 0 278 4 281 8 10 17 -38
100 -85 144 -78 73 -192 106 -302 88z m118 -21 c53 -15 127 -91 148 -152 l16
-47 -220 0 c-120 0 -219 2 -219 4 0 17 29 79 53 115 20 29 45 51 81 67 57 27
83 29 141 13z"/>
</g>
</svg>
